<svg xmlns:xlink="http://www.w3.org/1999/xlink" width="24" height="24" viewBox="0 0 24 24" fill="none" xmlns="http://www.w3.org/2000/svg">
<path d="M5.72901 14.25C5.60434 13.8887 5.50734 13.517 5.43801 13.135C5.36801 12.753 5.33301 12.3747 5.33301 12C5.33301 10.1527 5.98234 8.57966 7.28101 7.28099C8.57967 5.98232 10.1527 5.33299 12 5.33299H12.146L11.479 4.66699C11.3123 4.50032 11.229 4.29899 11.229 4.06299C11.229 3.82632 11.3193 3.61799 11.5 3.43799C11.6667 3.27132 11.868 3.18799 12.104 3.18799C12.34 3.18799 12.5483 3.27132 12.729 3.43799L14.854 5.58299C14.9513 5.68032 15.0207 5.78099 15.062 5.88499C15.104 5.98966 15.125 6.09732 15.125 6.20799C15.125 6.31932 15.104 6.42699 15.062 6.53099C15.0207 6.63566 14.9513 6.73632 14.854 6.83299L12.708 8.97899C12.5413 9.14566 12.34 9.22899 12.104 9.22899C11.868 9.22899 11.6667 9.13866 11.5 8.95799C11.3193 8.79132 11.229 8.58999 11.229 8.35399C11.229 8.11799 11.3193 7.90966 11.5 7.72899L12.146 7.08299H12C10.6527 7.08299 9.49634 7.56566 8.53101 8.53099C7.56567 9.49632 7.08301 10.6527 7.08301 12C7.08301 12.278 7.10734 12.5487 7.15601 12.812C7.20467 13.076 7.27067 13.333 7.35401 13.583C7.41001 13.7357 7.41701 13.9023 7.37501 14.083C7.33301 14.2637 7.25667 14.4097 7.14601 14.521C6.89601 14.771 6.62501 14.868 6.33301 14.812C6.04167 14.7567 5.84034 14.5693 5.72901 14.25ZM11.271 20.542L9.12501 18.417C9.02767 18.3197 8.95834 18.219 8.91701 18.115C8.87501 18.0103 8.85401 17.9027 8.85401 17.792C8.85401 17.6807 8.87501 17.573 8.91701 17.469C8.95834 17.3643 9.02767 17.2637 9.12501 17.167L11.271 15.021C11.4377 14.8543 11.639 14.771 11.875 14.771C12.111 14.771 12.3193 14.8543 12.5 15.021C12.6667 15.2017 12.75 15.41 12.75 15.646C12.75 15.882 12.6667 16.0833 12.5 16.25L11.833 16.917H12C13.3473 16.917 14.5037 16.4343 15.469 15.469C16.4343 14.5037 16.917 13.3473 16.917 12C16.917 11.722 16.896 11.4513 16.854 11.188C16.8127 10.924 16.7433 10.66 16.646 10.396C16.59 10.2433 16.5797 10.0767 16.615 9.89599C16.6497 9.71532 16.7223 9.56932 16.833 9.45799C17.083 9.20799 17.3573 9.10732 17.656 9.15599C17.9547 9.20466 18.1597 9.38866 18.271 9.70799C18.4097 10.0833 18.5103 10.462 18.573 10.844C18.6357 11.226 18.667 11.6113 18.667 12C18.667 13.8473 18.0177 15.4203 16.719 16.719C15.4203 18.0177 13.8473 18.667 12 18.667H11.833L12.5 19.333C12.6667 19.4997 12.75 19.7013 12.75 19.938C12.75 20.174 12.6667 20.3753 12.5 20.542C12.3193 20.722 12.111 20.812 11.875 20.812C11.639 20.812 11.4377 20.722 11.271 20.542Z" fill="#333333"></path>
</svg>