<svg xmlns:xlink="http://www.w3.org/1999/xlink" width="24" height="24" viewBox="0 0 24 24" fill="none" xmlns="http://www.w3.org/2000/svg">
<path d="M6.25 19.5C5.764 19.5 5.35067 19.33 5.01 18.99C4.67 18.6493 4.5 18.236 4.5 17.75V6.25C4.5 5.764 4.67 5.35067 5.01 5.01C5.35067 4.67 5.764 4.5 6.25 4.5H11.208C11.444 4.5 11.649 4.58667 11.823 4.76C11.9963 4.934 12.083 5.139 12.083 5.375C12.083 5.611 11.9963 5.816 11.823 5.99C11.649 6.16333 11.444 6.25 11.208 6.25H6.25V17.75H17.75V12.792C17.75 12.556 17.8367 12.351 18.01 12.177C18.184 12.0037 18.389 11.917 18.625 11.917C18.861 11.917 19.066 12.0037 19.24 12.177C19.4133 12.351 19.5 12.556 19.5 12.792V17.75C19.5 18.236 19.33 18.6493 18.99 18.99C18.6493 19.33 18.236 19.5 17.75 19.5H6.25ZM9.5 14.5C9.33333 14.3333 9.25 14.1283 9.25 13.885C9.25 13.6423 9.33333 13.4377 9.5 13.271L16.521 6.25H14.708C14.472 6.25 14.2673 6.16333 14.094 5.99C13.92 5.816 13.833 5.611 13.833 5.375C13.833 5.139 13.92 4.934 14.094 4.76C14.2673 4.58667 14.472 4.5 14.708 4.5H18.625C18.861 4.5 19.066 4.58667 19.24 4.76C19.4133 4.934 19.5 5.139 19.5 5.375V9.292C19.5 9.528 19.4133 9.73267 19.24 9.906C19.066 10.08 18.861 10.167 18.625 10.167C18.389 10.167 18.184 10.08 18.01 9.906C17.8367 9.73267 17.75 9.528 17.75 9.292V7.479L10.708 14.521C10.5413 14.6877 10.3437 14.771 10.115 14.771C9.88567 14.771 9.68067 14.6807 9.5 14.5Z" fill="#666666"></path>
</svg>