<svg xmlns:xlink="http://www.w3.org/1999/xlink" width="17" height="129" viewBox="0 0 17 129" fill="none" xmlns="http://www.w3.org/2000/svg">
<path d="M12.7061 120.412V121.66C12.7061 121.8 12.6721 121.916 12.6041 122.008C12.5321 122.096 12.4441 122.16 12.3401 122.2L10.5701 122.848V126.442L12.3401 127.09C12.4321 127.122 12.5161 127.186 12.5921 127.282C12.6681 127.374 12.7061 127.488 12.7061 127.624V128.878L4.03008 125.47L4.03008 123.82L12.7061 120.412ZM9.43009 126.028V123.262L6.54409 124.318C6.41609 124.366 6.26609 124.42 6.09409 124.48C5.91809 124.536 5.72809 124.592 5.52409 124.648C5.72809 124.704 5.91809 124.76 6.09409 124.816C6.27008 124.868 6.42408 124.92 6.55608 124.972L9.43009 126.028Z" fill="#FFFFFF"></path>
<path d="M10.6601 113.859C10.6601 113.771 10.6941 113.695 10.7621 113.631L11.4521 112.995C11.8881 113.347 12.2221 113.781 12.4541 114.297C12.6861 114.809 12.8021 115.425 12.8021 116.145C12.8021 116.789 12.6921 117.369 12.4721 117.885C12.2521 118.397 11.9461 118.835 11.5541 119.199C11.1621 119.563 10.6941 119.843 10.1501 120.039C9.60608 120.231 9.01208 120.327 8.36808 120.327C7.71608 120.327 7.12008 120.219 6.58008 120.003C6.03608 119.787 5.56808 119.483 5.17608 119.091C4.78408 118.699 4.48008 118.231 4.26408 117.687C4.04408 117.139 3.93408 116.535 3.93408 115.875C3.93408 115.231 4.03808 114.669 4.24608 114.189C4.45008 113.705 4.72208 113.291 5.06208 112.947L5.81208 113.487C5.86008 113.519 5.90208 113.561 5.93808 113.613C5.97408 113.661 5.99208 113.729 5.99208 113.817C5.99208 113.909 5.95608 114.003 5.88408 114.099C5.81208 114.195 5.73408 114.317 5.65008 114.465C5.56608 114.613 5.48808 114.801 5.41608 115.029C5.34408 115.253 5.30808 115.539 5.30808 115.887C5.30808 116.295 5.38008 116.671 5.52408 117.015C5.66408 117.355 5.86608 117.649 6.13008 117.897C6.39408 118.141 6.71608 118.333 7.09608 118.473C7.47208 118.609 7.89608 118.677 8.36808 118.677C8.85608 118.677 9.29008 118.609 9.67008 118.473C10.0501 118.333 10.3701 118.145 10.6301 117.909C10.8901 117.673 11.0901 117.395 11.2301 117.075C11.3661 116.755 11.4341 116.411 11.4341 116.043C11.4341 115.823 11.4221 115.625 11.3981 115.449C11.3741 115.269 11.3361 115.105 11.2841 114.957C11.2321 114.805 11.1661 114.663 11.0861 114.531C11.0021 114.395 10.9001 114.261 10.7801 114.129C10.7441 114.089 10.7161 114.047 10.6961 114.003C10.6721 113.959 10.6601 113.911 10.6601 113.859Z" fill="#FFFFFF"></path>
<path d="M4.03008 106.3H5.31408L5.31408 110.146H7.72008L7.72008 107.116H8.96208L8.96208 110.146H11.4161V106.3H12.7061L12.7061 111.772H4.03008L4.03008 106.3Z" fill="#FFFFFF"></path>
<path d="M5.60808 100.255C5.69608 100.299 5.75808 100.351 5.79408 100.411C5.83008 100.467 5.84808 100.535 5.84808 100.615C5.84808 100.695 5.81808 100.785 5.75808 100.885C5.69408 100.985 5.62408 101.103 5.54808 101.239C5.47208 101.375 5.40408 101.535 5.34408 101.719C5.28008 101.899 5.24808 102.113 5.24808 102.361C5.24808 102.585 5.27608 102.781 5.33208 102.949C5.38408 103.113 5.45808 103.253 5.55408 103.369C5.65008 103.481 5.76608 103.565 5.90208 103.621C6.03408 103.677 6.18008 103.705 6.34008 103.705C6.54408 103.705 6.71408 103.649 6.85008 103.537C6.98608 103.421 7.10208 103.269 7.19808 103.081C7.29408 102.893 7.38008 102.679 7.45608 102.439C7.53208 102.199 7.61408 101.955 7.70208 101.707C7.78608 101.455 7.88608 101.209 8.00208 100.969C8.11408 100.729 8.25808 100.515 8.43408 100.327C8.60608 100.139 8.81808 99.9891 9.07008 99.8771C9.32208 99.7611 9.62808 99.7031 9.98808 99.7031C10.3801 99.7031 10.7481 99.7711 11.0921 99.9071C11.4321 100.039 11.7301 100.235 11.9861 100.495C12.2381 100.751 12.4381 101.065 12.5861 101.437C12.7301 101.809 12.8021 102.235 12.8021 102.715C12.8021 102.991 12.7741 103.263 12.7181 103.531C12.6661 103.799 12.5901 104.057 12.4901 104.305C12.3901 104.549 12.2701 104.779 12.1301 104.995C11.9901 105.207 11.8341 105.397 11.6621 105.565L10.8881 105.097C10.8321 105.053 10.7861 105.001 10.7501 104.941C10.7101 104.877 10.6901 104.807 10.6901 104.731C10.6901 104.631 10.7321 104.523 10.8161 104.407C10.8961 104.291 10.9861 104.155 11.0861 103.999C11.1861 103.839 11.2781 103.653 11.3621 103.441C11.4421 103.225 11.4821 102.967 11.4821 102.667C11.4821 102.207 11.3741 101.851 11.1581 101.599C10.9381 101.347 10.6241 101.221 10.2161 101.221C9.98808 101.221 9.80208 101.279 9.65808 101.395C9.51408 101.507 9.39408 101.657 9.29808 101.845C9.19808 102.033 9.11408 102.247 9.04608 102.487C8.97808 102.727 8.90408 102.971 8.82408 103.219C8.74408 103.467 8.64808 103.711 8.53608 103.951C8.42408 104.191 8.27808 104.405 8.09808 104.593C7.91808 104.781 7.69408 104.933 7.42608 105.049C7.15408 105.161 6.82008 105.217 6.42408 105.217C6.10808 105.217 5.80008 105.155 5.50008 105.031C5.20008 104.903 4.93408 104.719 4.70208 104.479C4.47008 104.235 4.28408 103.937 4.14408 103.585C4.00408 103.233 3.93408 102.831 3.93408 102.379C3.93408 101.867 4.01408 101.395 4.17408 100.963C4.33408 100.531 4.55808 100.163 4.84608 99.8591L5.60808 100.255Z" fill="#FFFFFF"></path>
<path d="M5.60808 93.8215C5.69608 93.8655 5.75808 93.9175 5.79408 93.9775C5.83008 94.0335 5.84808 94.1015 5.84808 94.1815C5.84808 94.2615 5.81808 94.3515 5.75808 94.4515C5.69408 94.5515 5.62408 94.6695 5.54808 94.8055C5.47208 94.9415 5.40408 95.1015 5.34408 95.2855C5.28008 95.4655 5.24808 95.6795 5.24808 95.9275C5.24808 96.1515 5.27608 96.3475 5.33208 96.5155C5.38408 96.6795 5.45808 96.8195 5.55408 96.9355C5.65008 97.0475 5.76608 97.1315 5.90208 97.1875C6.03408 97.2435 6.18008 97.2715 6.34008 97.2715C6.54408 97.2715 6.71408 97.2155 6.85008 97.1035C6.98608 96.9875 7.10208 96.8355 7.19808 96.6475C7.29408 96.4595 7.38008 96.2455 7.45608 96.0055C7.53208 95.7655 7.61408 95.5215 7.70208 95.2735C7.78608 95.0215 7.88608 94.7755 8.00208 94.5355C8.11408 94.2955 8.25808 94.0815 8.43408 93.8935C8.60608 93.7055 8.81808 93.5555 9.07008 93.4435C9.32208 93.3275 9.62808 93.2695 9.98808 93.2695C10.3801 93.2695 10.7481 93.3375 11.0921 93.4735C11.4321 93.6055 11.7301 93.8015 11.9861 94.0615C12.2381 94.3175 12.4381 94.6315 12.5861 95.0035C12.7301 95.3755 12.8021 95.8015 12.8021 96.2815C12.8021 96.5575 12.7741 96.8295 12.7181 97.0975C12.6661 97.3655 12.5901 97.6235 12.4901 97.8715C12.3901 98.1155 12.2701 98.3455 12.1301 98.5615C11.9901 98.7735 11.8341 98.9635 11.6621 99.1315L10.8881 98.6635C10.8321 98.6195 10.7861 98.5675 10.7501 98.5075C10.7101 98.4435 10.6901 98.3735 10.6901 98.2975C10.6901 98.1975 10.7321 98.0895 10.8161 97.9735C10.8961 97.8575 10.9861 97.7215 11.0861 97.5655C11.1861 97.4055 11.2781 97.2195 11.3621 97.0075C11.4421 96.7915 11.4821 96.5335 11.4821 96.2335C11.4821 95.7735 11.3741 95.4175 11.1581 95.1655C10.9381 94.9135 10.6241 94.7875 10.2161 94.7875C9.98808 94.7875 9.80208 94.8455 9.65808 94.9615C9.51408 95.0735 9.39408 95.2235 9.29808 95.4115C9.19808 95.5995 9.11408 95.8135 9.04608 96.0535C8.97808 96.2935 8.90408 96.5375 8.82408 96.7855C8.74408 97.0335 8.64808 97.2775 8.53608 97.5175C8.42408 97.7575 8.27808 97.9715 8.09808 98.1595C7.91808 98.3475 7.69408 98.4995 7.42608 98.6155C7.15408 98.7275 6.82008 98.7835 6.42408 98.7835C6.10808 98.7835 5.80008 98.7215 5.50008 98.5975C5.20008 98.4695 4.93408 98.2855 4.70208 98.0455C4.47008 97.8015 4.28408 97.5035 4.14408 97.1515C4.00408 96.7995 3.93408 96.3975 3.93408 95.9455C3.93408 95.4335 4.01408 94.9615 4.17408 94.5295C4.33408 94.0975 4.55808 93.7295 4.84608 93.4255L5.60808 93.8215Z" fill="#FFFFFF"></path>
<path d="M12.7061 90.2199V91.8399H4.03008L4.03008 90.2199H12.7061ZM1.96008 88.6959L3.25608 90.4719C3.28808 90.5159 3.31408 90.5579 3.33408 90.5979C3.35408 90.6339 3.37008 90.6719 3.38208 90.7119C3.39408 90.7479 3.40208 90.7879 3.40608 90.8319C3.41008 90.8719 3.41208 90.9199 3.41208 90.9759V92.1399L2.20008 90.9639C2.15208 90.9159 2.11208 90.8719 2.08008 90.8319C2.04808 90.7879 2.02408 90.7439 2.00808 90.6999C1.98808 90.6559 1.97608 90.6059 1.97208 90.5499C1.96408 90.4939 1.96008 90.4259 1.96008 90.3459L1.96008 88.6959Z" fill="#FFFFFF"></path>
<path d="M4.03008 89.1165V87.8145C4.03008 87.6745 4.06408 87.5605 4.13208 87.4725C4.20008 87.3845 4.28808 87.3185 4.39608 87.2745L9.68808 85.2345C9.86008 85.1665 10.0501 85.1025 10.2581 85.0425C10.4621 84.9785 10.6781 84.9185 10.9061 84.8625C10.4461 84.7705 10.0401 84.6565 9.68808 84.5205L4.39608 82.4865C4.30408 82.4505 4.22008 82.3865 4.14408 82.2945C4.06808 82.2025 4.03008 82.0885 4.03008 81.9525V80.6505L12.7061 84.1545V85.6125L4.03008 89.1165Z" fill="#FFFFFF"></path>
<path d="M4.03008 74.273H5.31408L5.31408 78.119H7.72008V75.089H8.96208V78.119H11.4161V74.273H12.7061V79.745H4.03008L4.03008 74.273Z" fill="#FFFFFF"></path>
<path d="M11.3741 71.2638V67.7898H12.7061V72.8778H4.03008V71.2638H11.3741Z" fill="#FFFFFF"></path>
<path d="M4.03008 56.5659H5.31408L5.31408 60.4119H7.72008V57.3819H8.96208V60.4119H11.4161V56.5659H12.7061V62.0379H4.03008L4.03008 56.5659Z" fill="#FFFFFF"></path>
<path d="M9.10608 50.8148C9.23408 50.7467 9.36808 50.6847 9.50808 50.6287C9.64408 50.5687 9.78208 50.5107 9.92208 50.4548C9.77808 50.3988 9.63608 50.3408 9.49608 50.2808C9.35608 50.2207 9.22208 50.1567 9.09408 50.0887L4.28808 47.5207C4.22808 47.4888 4.18008 47.4568 4.14408 47.4248C4.10808 47.3888 4.08208 47.3507 4.06608 47.3107C4.05008 47.2668 4.04008 47.2188 4.03608 47.1668C4.03208 47.1148 4.03008 47.0527 4.03008 46.9808V45.7627H12.7061V47.1847H7.10208C6.99808 47.1847 6.88408 47.1827 6.76008 47.1787C6.63608 47.1707 6.51008 47.1608 6.38208 47.1488L11.3021 49.7707C11.4141 49.8307 11.5021 49.9087 11.5661 50.0047C11.6261 50.1007 11.6561 50.2128 11.6561 50.3408V50.5627C11.6561 50.6907 11.6261 50.8027 11.5661 50.8988C11.5021 50.9948 11.4141 51.0728 11.3021 51.1328L6.36408 53.7907C6.49608 53.7747 6.62608 53.7648 6.75408 53.7607C6.87808 53.7528 6.99408 53.7487 7.10208 53.7487H12.7061V55.1707H4.03008V53.9528C4.03008 53.8808 4.03208 53.8187 4.03608 53.7668C4.04008 53.7148 4.05008 53.6688 4.06608 53.6287C4.08208 53.5848 4.10808 53.5448 4.14408 53.5088C4.18008 53.4728 4.22808 53.4388 4.28808 53.4067L9.10608 50.8148Z" fill="#FFFFFF"></path>
<path d="M11.3741 37.7599V34.2859H12.7061V39.3739H4.03008V37.7599H11.3741Z" fill="#FFFFFF"></path>
<path d="M12.7061 31.3567V32.9767H4.03008L4.03008 31.3567L12.7061 31.3567Z" fill="#FFFFFF"></path>
<path d="M12.7061 29.4012H4.03008V26.4072C4.03008 25.8392 4.08408 25.3552 4.19208 24.9552C4.30008 24.5512 4.45408 24.2212 4.65408 23.9652C4.85408 23.7052 5.09608 23.5152 5.38008 23.3952C5.66408 23.2752 5.98408 23.2152 6.34008 23.2152C6.54408 23.2152 6.74008 23.2452 6.92808 23.3052C7.11208 23.3652 7.28608 23.4592 7.45008 23.5872C7.61008 23.7112 7.75608 23.8712 7.88808 24.0672C8.02008 24.2592 8.13208 24.4892 8.22408 24.7572C8.49208 23.5652 9.13608 22.9692 10.1561 22.9692C10.5241 22.9692 10.8641 23.0392 11.1761 23.1792C11.4881 23.3192 11.7581 23.5232 11.9861 23.7912C12.2101 24.0592 12.3861 24.3892 12.5141 24.7812C12.6421 25.1732 12.7061 25.6212 12.7061 26.1252V29.4012ZM8.90208 27.7872H11.4461V26.1492C11.4461 25.8492 11.4101 25.5992 11.3381 25.3992C11.2661 25.1952 11.1701 25.0332 11.0501 24.9132C10.9301 24.7892 10.7901 24.7012 10.6301 24.6492C10.4701 24.5932 10.3001 24.5652 10.1201 24.5652C9.93208 24.5652 9.76408 24.5952 9.61608 24.6552C9.46408 24.7152 9.33608 24.8092 9.23208 24.9372C9.12408 25.0652 9.04208 25.2292 8.98608 25.4292C8.93008 25.6292 8.90208 25.8712 8.90208 26.1552V27.7872ZM7.78608 27.7872V26.4972C7.78608 25.9492 7.68608 25.5332 7.48608 25.2492C7.28608 24.9652 6.96808 24.8232 6.53208 24.8232C6.08008 24.8232 5.75808 24.9512 5.56608 25.2072C5.37408 25.4632 5.27808 25.8632 5.27808 26.4072V27.7872H7.78608Z" fill="#FFFFFF"></path>
<path d="M9.31608 19.9168H12.7061V21.5308H4.03008L4.03008 18.8848C4.03008 18.2928 4.09208 17.7868 4.21608 17.3668C4.33608 16.9428 4.50608 16.5968 4.72608 16.3288C4.94608 16.0568 5.21008 15.8588 5.51808 15.7348C5.82208 15.6068 6.15808 15.5428 6.52608 15.5428C6.81808 15.5428 7.09408 15.5868 7.35408 15.6748C7.61408 15.7588 7.85008 15.8828 8.06208 16.0468C8.27408 16.2068 8.46008 16.4068 8.62008 16.6468C8.78008 16.8828 8.90808 17.1528 9.00408 17.4568C9.12008 17.2528 9.28608 17.0768 9.50208 16.9288L12.7061 14.7568V16.2088C12.7061 16.3488 12.6781 16.4688 12.6221 16.5688C12.5661 16.6648 12.4861 16.7468 12.3821 16.8148L9.60408 18.6388C9.50008 18.7068 9.42608 18.7828 9.38208 18.8668C9.33808 18.9468 9.31608 19.0668 9.31608 19.2268V19.9168ZM8.15808 19.9168V18.9088C8.15808 18.6048 8.12008 18.3408 8.04408 18.1168C7.96808 17.8888 7.86408 17.7028 7.73208 17.5588C7.59608 17.4108 7.43608 17.3008 7.25208 17.2288C7.06808 17.1568 6.86608 17.1208 6.64608 17.1208C6.20608 17.1208 5.86808 17.2668 5.63208 17.5588C5.39608 17.8468 5.27808 18.2888 5.27808 18.8848V19.9168H8.15808Z" fill="#FFFFFF"></path>
<path d="M12.7061 6.09553V7.34353C12.7061 7.48353 12.6721 7.59953 12.6041 7.69153C12.5321 7.77953 12.4441 7.84353 12.3401 7.88353L10.5701 8.53153L10.5701 12.1255L12.3401 12.7735C12.4321 12.8055 12.5161 12.8695 12.5921 12.9655C12.6681 13.0575 12.7061 13.1715 12.7061 13.3075V14.5615L4.03008 11.1535L4.03008 9.50353L12.7061 6.09553ZM9.43008 11.7115V8.94553L6.54408 10.0015C6.41608 10.0495 6.26608 10.1035 6.09408 10.1635C5.91808 10.2195 5.72808 10.2755 5.52408 10.3315C5.72808 10.3875 5.91808 10.4435 6.09408 10.4995C6.27008 10.5515 6.42408 10.6035 6.55608 10.6555L9.43008 11.7115Z" fill="#FFFFFF"></path>
<path d="M5.60808 0.552C5.69608 0.596 5.75808 0.648 5.79408 0.708C5.83008 0.764 5.84808 0.832 5.84808 0.912C5.84808 0.992 5.81808 1.082 5.75808 1.182C5.69408 1.282 5.62408 1.4 5.54808 1.536C5.47208 1.672 5.40408 1.832 5.34408 2.016C5.28008 2.196 5.24808 2.41 5.24808 2.658C5.24808 2.882 5.27608 3.078 5.33208 3.246C5.38408 3.41 5.45808 3.55 5.55408 3.666C5.65008 3.778 5.76608 3.862 5.90208 3.918C6.03408 3.974 6.18008 4.002 6.34008 4.002C6.54408 4.002 6.71408 3.946 6.85008 3.834C6.98608 3.718 7.10208 3.566 7.19808 3.378C7.29408 3.19 7.38008 2.976 7.45608 2.736C7.53208 2.496 7.61408 2.252 7.70208 2.004C7.78608 1.752 7.88608 1.506 8.00208 1.266C8.11408 1.026 8.25808 0.812 8.43408 0.624C8.60608 0.436 8.81808 0.286 9.07008 0.174C9.32208 0.058 9.62808 1.57361e-08 9.98808 0C10.3801 -1.71349e-08 10.7481 0.0679999 11.0921 0.204C11.4321 0.336 11.7301 0.532 11.9861 0.792C12.2381 1.048 12.4381 1.362 12.5861 1.734C12.7301 2.106 12.8021 2.532 12.8021 3.012C12.8021 3.288 12.7741 3.56 12.7181 3.828C12.6661 4.096 12.5901 4.354 12.4901 4.602C12.3901 4.846 12.2701 5.076 12.1301 5.292C11.9901 5.504 11.8341 5.694 11.6621 5.862L10.8881 5.394C10.8321 5.35 10.7861 5.298 10.7501 5.238C10.7101 5.174 10.6901 5.104 10.6901 5.028C10.6901 4.928 10.7321 4.82 10.8161 4.704C10.8961 4.588 10.9861 4.452 11.0861 4.296C11.1861 4.136 11.2781 3.95 11.3621 3.738C11.4421 3.522 11.4821 3.264 11.4821 2.964C11.4821 2.504 11.3741 2.148 11.1581 1.896C10.9381 1.644 10.6241 1.518 10.2161 1.518C9.98808 1.518 9.80208 1.576 9.65808 1.692C9.51408 1.804 9.39408 1.954 9.29808 2.142C9.19808 2.33 9.11408 2.544 9.04608 2.784C8.97808 3.024 8.90408 3.268 8.82408 3.516C8.74408 3.764 8.64808 4.008 8.53608 4.248C8.42408 4.488 8.27808 4.702 8.09808 4.89C7.91808 5.078 7.69408 5.23 7.42608 5.346C7.15408 5.458 6.82008 5.514 6.42408 5.514C6.10808 5.514 5.80008 5.452 5.50008 5.328C5.20008 5.2 4.93408 5.016 4.70208 4.776C4.47008 4.532 4.28408 4.234 4.14408 3.882C4.00408 3.53 3.93408 3.128 3.93408 2.676C3.93408 2.164 4.01408 1.692 4.17408 1.26C4.33408 0.828 4.55808 0.46 4.84608 0.156L5.60808 0.552Z" fill="#FFFFFF"></path>
</svg>