<svg xmlns:xlink="http://www.w3.org/1999/xlink" width="30" height="30" viewBox="0 0 30 30" fill="none" xmlns="http://www.w3.org/2000/svg">
<path d="M25.4131 4.35943C19.5989 -1.45314 10.1737 -1.45314 4.35943 4.35943C-1.45314 10.172 -1.45314 19.5989 4.35943 25.4114C9.23919 30.2929 16.8037 31.4062 22.501 28.0945C22.5026 28.0945 22.5026 28.0962 22.5043 28.0962C24.3867 27.1082 26.381 27.1617 27.2787 27.481C27.5412 27.5746 27.5496 27.5496 27.471 27.3272C27.1584 26.4395 27.1183 24.4134 28.128 22.4943C28.128 22.4926 28.1263 22.4926 28.1246 22.4926C31.4196 16.8004 30.2845 9.2325 25.4131 4.35943Z" fill="#F36F22"/>
<path fill-rule="evenodd" clip-rule="evenodd" d="M5.62157 19.95C5.6316 19.97 5.64163 19.9868 5.65334 20.0085C5.65334 20.0102 5.65334 20.0118 5.65334 20.0135C8.3749 25.0922 14.7024 27.0247 19.8095 24.3015C21.5949 23.3519 23.6595 21.2422 24.5572 19.084C24.5572 19.0823 24.5572 19.0823 24.5572 19.0823C24.6775 18.8149 24.6775 18.4956 24.5288 18.2164C24.2746 17.7366 23.6795 17.5561 23.1997 17.8102C23.0978 17.8637 23.0125 17.9339 22.9373 18.0124H22.9389C22.9373 18.0124 22.9373 18.0141 22.9373 18.0141C22.9272 18.0258 22.9172 18.0358 22.9055 18.0476V18.0492C21.951 19.1409 21.6383 19.4251 20.7807 20.388C20.2842 20.948 19.9382 21.3208 19.6958 21.4612C19.3732 21.6484 18.8332 21.2506 19.0338 20.8477C19.44 20.0369 23.2148 16.2053 24.8781 14.0321C24.8781 14.0304 24.9316 13.9652 24.955 13.9318H24.9567C25.2142 13.5556 25.2593 13.0524 25.0303 12.6245C24.7043 12.011 23.942 11.7786 23.3268 12.1046C23.1797 12.1832 23.0576 12.2851 22.959 12.4038L22.9373 12.4272C21.2756 14.4634 19.3782 16.5697 17.3571 18.6226V18.6243C17.3136 18.6711 17.2685 18.7129 17.2133 18.7447C16.9843 18.865 16.7017 18.7781 16.5797 18.5507C16.4761 18.3535 16.5362 18.1345 16.685 17.9773C19.3865 15.1388 21.4812 12.6145 23.1546 10.371L23.2516 10.2423C23.5525 9.85946 23.5976 9.33955 23.3535 8.88317C23.0275 8.26798 22.2619 8.03561 21.6467 8.36327C21.4862 8.44853 21.3525 8.56555 21.2455 8.69928C19.4166 11.038 17.2283 13.5255 14.9097 15.9061C14.8461 15.9679 14.7826 16.0298 14.7124 16.0732C14.7107 16.0732 14.7091 16.0766 14.7091 16.0766C14.48 16.197 14.1975 16.11 14.0771 15.8843C14.0404 15.8158 13.9401 15.6119 14.0671 15.4263C14.0705 15.4246 14.0721 15.4179 14.0755 15.4179C16.4226 12.9371 17.6914 11.5044 19.4952 9.1005L19.5504 9.02193C19.8646 8.60065 19.9666 8.08242 19.7025 7.58759C19.3397 6.90553 18.3952 6.64641 17.7165 7.01085C17.5242 7.11115 17.2384 7.40704 17.2384 7.40704C11.0981 14.3882 10.6936 14.7944 10.6835 14.8061C10.0383 15.5299 8.05727 15.6102 7.85499 14.1608C7.79983 13.0759 7.98204 12.7716 8.48356 11.1183C9.05529 9.22755 6.07963 8.30309 5.20866 10.8993C5.20866 10.8993 4.31094 13.1661 4.3611 15.117C4.39453 16.3925 4.59681 17.6764 5.08328 18.8383C5.08495 18.8399 5.08495 18.845 5.08662 18.8483C5.08997 18.8517 5.09331 18.8583 5.09331 18.8634" fill="white"/>
<path d="M14.7141 16.0764C14.7141 16.0747 14.7158 16.0731 14.7174 16.0731C14.7877 16.0296 14.8512 15.9661 14.9147 15.9059C16.0431 14.7474 17.1398 13.5638 18.1796 12.3852L19.761 8.66064C19.7109 8.78602 19.6423 8.90806 19.5554 9.02174L19.5002 9.10031C17.6898 11.5009 16.4276 12.9369 14.0805 15.4177C14.0772 15.4194 14.0755 15.4244 14.0722 15.4261C13.9451 15.6117 14.0454 15.8139 14.0822 15.8842C14.2026 16.1098 14.4851 16.1951 14.7141 16.0764Z" fill="#D65922"/>
<path d="M17.215 18.7444C17.2718 18.7127 17.3153 18.6725 17.3588 18.6241V18.6224C18.8967 17.0593 20.3628 15.4662 21.7086 13.8964L23.4305 9.91772H23.4271C23.382 10.0398 23.3185 10.1551 23.2365 10.2588L23.2399 10.2604C21.3642 12.7747 19.1592 15.3826 16.6884 17.9771C16.5396 18.1342 16.4794 18.3532 16.5831 18.5505C16.7034 18.7779 16.986 18.8648 17.215 18.7444Z" fill="#D65922"/>
<path d="M24.9584 13.9333C24.9333 13.9668 24.9083 13.9985 24.8832 14.0303C24.8798 14.032 24.8798 14.0336 24.8798 14.0353C23.2165 16.2085 19.4417 20.0401 19.0355 20.8509C18.8349 21.2538 19.3732 21.6517 19.6975 21.4644C19.9382 21.324 20.2859 20.9512 20.7824 20.3912C21.64 19.4283 21.9527 19.1441 22.9072 18.0524V18.0508C22.9189 18.0391 22.939 18.0157 22.939 18.0157C23.0125 17.9371 23.0995 17.8669 23.2014 17.8134C23.2532 17.7866 23.3051 17.7649 23.3602 17.7465L25.1055 13.6475C25.0687 13.7461 25.0203 13.8431 24.9584 13.9333Z" fill="#D65922"/>
<path d="M19.8112 24.3022C14.7041 27.0255 8.37659 25.0913 5.65502 20.0143C5.65502 20.0126 5.65502 20.0109 5.65502 20.0092C5.64332 19.9892 5.63329 19.9725 5.62326 19.9507L5.09834 18.8641C5.09667 18.8591 5.095 18.8524 5.09165 18.8491C5.08998 18.8457 5.08998 18.8424 5.08831 18.839C4.60351 17.6755 4.39956 16.3916 4.36613 15.1178C4.32935 13.7135 4.78406 12.1438 5.0415 11.3765L1.12299 20.5592C1.85018 22.3246 2.92845 23.9779 4.36111 25.4122C8.57719 29.6283 14.7943 31.0309 20.082 29.2004L24.4234 19.3924C23.4639 21.4419 21.5113 23.3978 19.8112 24.3022Z" fill="#D65922"/>
</svg>
