<svg xmlns:xlink="http://www.w3.org/1999/xlink" width="40" height="40" viewBox="0 0 40 40" fill="none" xmlns="http://www.w3.org/2000/svg">
<path d="M13.3159 13.0623C13.9409 13.0623 14.2464 12.3123 13.802 11.8818L10.6214 8.68734C10.3437 8.40956 9.9131 8.40956 9.63532 8.68734L6.45477 11.8818C6.02421 12.3123 6.32977 13.0623 6.95477 13.0623H8.74643V26.9512H6.95477C6.32977 26.9512 6.02421 27.7012 6.46865 28.1318L9.64921 31.3123C9.92699 31.5901 10.3575 31.5901 10.6353 31.3123L13.8159 28.1318C14.2464 27.7012 13.9409 26.9512 13.3159 26.9512H11.5242V13.0623H13.3159ZM18.4687 13.0623H32.3575C33.1214 13.0623 33.7464 12.4373 33.7464 11.6734C33.7464 10.9096 33.1214 10.2846 32.3575 10.2846H18.4687C17.7048 10.2846 17.0798 10.9096 17.0798 11.6734C17.0798 12.4373 17.7048 13.0623 18.4687 13.0623ZM32.3575 26.9512H18.4687C17.7048 26.9512 17.0798 27.5762 17.0798 28.3401C17.0798 29.104 17.7048 29.729 18.4687 29.729H32.3575C33.1214 29.729 33.7464 29.104 33.7464 28.3401C33.7464 27.5762 33.1214 26.9512 32.3575 26.9512ZM32.3575 18.6179H18.4687C17.7048 18.6179 17.0798 19.2429 17.0798 20.0068C17.0798 20.7707 17.7048 21.3957 18.4687 21.3957H32.3575C33.1214 21.3957 33.7464 20.7707 33.7464 20.0068C33.7464 19.2429 33.1214 18.6179 32.3575 18.6179Z" fill="#F06F06"></path>
</svg>