<svg xmlns:xlink="http://www.w3.org/1999/xlink" width="40" height="40" viewBox="0 0 40 40" fill="none" xmlns="http://www.w3.org/2000/svg">
<path d="M15.9109 21.6723C18.9239 21.6723 21.3664 19.2298 21.3664 16.2169C21.3664 13.2039 18.9239 10.7614 15.9109 10.7614C12.898 10.7614 10.4555 13.2039 10.4555 16.2169C10.4555 19.2298 12.898 21.6723 15.9109 21.6723Z" fill="#666666"></path>
<path d="M15.911 24.4001C12.2694 24.4001 5 26.2276 5 29.8555V31.2194C5 31.9695 5.61374 32.5833 6.36387 32.5833H25.458C26.2082 32.5833 26.8219 31.9695 26.8219 31.2194V29.8555C26.8219 26.2276 19.5525 24.4001 15.911 24.4001ZM24.7352 14.5393C25.1716 15.6167 25.1716 16.8169 24.7352 17.8944C24.476 18.5354 24.5852 19.2583 25.0761 19.7493L25.1171 19.7902C25.9081 20.5812 27.2583 20.4176 27.7766 19.4219C28.8131 17.4443 28.8131 15.1257 27.7493 13.0663C27.2311 12.057 25.8672 11.8661 25.0625 12.6708L25.0489 12.6844C24.5852 13.1618 24.476 13.8983 24.7352 14.5393ZM29.7951 7.8836C29.2496 8.42915 29.1678 9.27475 29.6178 9.90213C32.3047 13.6391 32.291 18.6445 29.5769 22.5179C29.1405 23.1317 29.2359 23.9773 29.7679 24.5092L29.8088 24.5501C30.4771 25.2184 31.6091 25.1638 32.1819 24.4137C35.9325 19.5856 35.9462 12.9981 32.1819 8.01999C31.6091 7.26986 30.4634 7.21531 29.7951 7.8836Z" fill="#666666"></path>
</svg>