<svg xmlns:xlink="http://www.w3.org/1999/xlink" width="24" height="24" viewBox="0 0 24 24" fill="none" xmlns="http://www.w3.org/2000/svg">
<path d="M9.97897 16.646C9.86764 16.646 9.75997 16.625 9.65597 16.583C9.55197 16.5417 9.4513 16.4723 9.35397 16.375L5.83297 12.854C5.6663 12.6873 5.58664 12.4757 5.59397 12.219C5.60064 11.9617 5.6873 11.7497 5.85397 11.583C6.02064 11.4163 6.22897 11.333 6.47897 11.333C6.72897 11.333 6.9373 11.4163 7.10397 11.583L10.021 14.5L16.917 7.604C17.0836 7.43734 17.2883 7.354 17.531 7.354C17.7743 7.354 17.9793 7.43734 18.146 7.604C18.3126 7.77067 18.396 7.97567 18.396 8.219C18.396 8.46167 18.3126 8.66634 18.146 8.833L10.604 16.375C10.5066 16.4723 10.406 16.5417 10.302 16.583C10.198 16.625 10.0903 16.646 9.97897 16.646Z" fill="#FFFFFF"></path>
</svg>