<svg xmlns:xlink="http://www.w3.org/1999/xlink" width="40" height="40" viewBox="0 0 40 40" fill="none" xmlns="http://www.w3.org/2000/svg">
<path d="M15.139 11.6668C15.139 12.8196 16.0696 13.7502 17.2223 13.7502H22.0834V28.3335C22.0834 29.4863 23.014 30.4168 24.1668 30.4168C25.3196 30.4168 26.2501 29.4863 26.2501 28.3335V13.7502H31.1112C32.264 13.7502 33.1946 12.8196 33.1946 11.6668C33.1946 10.5141 32.264 9.5835 31.1112 9.5835H17.2223C16.0696 9.5835 15.139 10.5141 15.139 11.6668ZM8.889 20.6946H10.9723V28.3335C10.9723 29.4863 11.9029 30.4168 13.0557 30.4168C14.2084 30.4168 15.139 29.4863 15.139 28.3335V20.6946H17.2223C18.3751 20.6946 19.3057 19.7641 19.3057 18.6113C19.3057 17.4585 18.3751 16.5279 17.2223 16.5279H8.889C7.73622 16.5279 6.80566 17.4585 6.80566 18.6113C6.80566 19.7641 7.73622 20.6946 8.889 20.6946Z" fill="#666666"></path>
</svg>