<svg xmlns:xlink="http://www.w3.org/1999/xlink" width="40" height="40" viewBox="0 0 40 40" fill="none" xmlns="http://www.w3.org/2000/svg">
<path d="M20.0348 25.6252C21.7937 25.6252 23.2865 25.0002 24.5132 23.7502C25.7398 22.5002 26.3532 20.9957 26.3532 19.2368C26.3532 17.4768 25.7398 15.9835 24.5132 14.7568C23.2865 13.5302 21.7937 12.9168 20.0348 12.9168C18.276 12.9168 16.771 13.5302 15.5198 14.7568C14.271 15.9835 13.6465 17.4768 13.6465 19.2368C13.6465 21.0191 14.2654 22.5291 15.5032 23.7668C16.7421 25.0057 18.2526 25.6252 20.0348 25.6252ZM20.0348 23.0202C18.9926 23.0202 18.1015 22.6502 17.3615 21.9102C16.6204 21.1691 16.2498 20.278 16.2498 19.2368C16.2498 18.1946 16.6204 17.3146 17.3615 16.5968C18.1015 15.8791 18.9926 15.5202 20.0348 15.5202C21.076 15.5202 21.9554 15.8791 22.6732 16.5968C23.391 17.3146 23.7498 18.1946 23.7498 19.2368C23.7498 20.278 23.391 21.1691 22.6732 21.9102C21.9554 22.6502 21.076 23.0202 20.0348 23.0202ZM19.9998 29.7218C16.7587 29.7218 13.8076 28.8657 11.1465 27.1535C8.48429 25.4402 6.48151 23.1368 5.13818 20.2435C5.09262 20.128 5.05207 19.983 5.01651 19.8085C4.98207 19.6352 4.96484 19.4557 4.96484 19.2702C4.96484 19.0857 4.98207 18.9068 5.01651 18.7335C5.05207 18.5591 5.09262 18.4141 5.13818 18.2985C6.48151 15.4052 8.48984 13.108 11.1632 11.4068C13.8365 9.70463 16.7821 8.85352 19.9998 8.85352C23.2176 8.85352 26.1632 9.70463 28.8365 11.4068C31.5098 13.108 33.5182 15.4052 34.8615 18.2985C34.9071 18.4141 34.9476 18.5591 34.9832 18.7335C35.0176 18.9068 35.0348 19.0857 35.0348 19.2702C35.0348 19.4557 35.0176 19.6352 34.9832 19.8085C34.9476 19.983 34.9071 20.128 34.8615 20.2435C33.5182 23.1368 31.5154 25.4402 28.8532 27.1535C26.1921 28.8657 23.241 29.7218 19.9998 29.7218Z" fill="#FFFFFF"></path>
</svg>