<svg width="79" height="78" viewBox="0 0 79 78" fill="none" xmlns="http://www.w3.org/2000/svg">
<path d="M66.0976 11.3386C50.9752 -3.77952 26.461 -3.77952 11.3386 11.3386C-3.77952 26.4566 -3.77952 50.9752 11.3386 66.0932C24.0304 78.7895 43.7053 81.6853 58.5233 73.0718C58.5277 73.0718 58.5277 73.0762 58.532 73.0762C63.4279 70.5065 68.6151 70.6456 70.95 71.4761C71.6326 71.7196 71.6544 71.6544 71.45 71.0761C70.6369 68.7673 70.5326 63.4975 73.1588 58.5059C73.1588 58.5016 73.1544 58.5016 73.1501 58.5016C81.72 43.6966 78.7677 24.0131 66.0976 11.3386Z" fill="#C4C4C4"/>
<path fill-rule="evenodd" clip-rule="evenodd" d="M14.6238 51.8879C14.6499 51.9401 14.6759 51.9836 14.7064 52.0401C14.7064 52.0445 14.7064 52.0488 14.7064 52.0531C21.785 65.2624 38.2422 70.2888 51.5255 63.2058C56.1692 60.7362 61.539 55.2489 63.8739 49.6356C63.8739 49.6313 63.8739 49.6313 63.8739 49.6313C64.1869 48.9356 64.1869 48.1051 63.7999 47.379C63.139 46.1311 61.5911 45.6615 60.3433 46.3224C60.078 46.4616 59.8563 46.6442 59.6606 46.8486H59.665C59.6606 46.8486 59.6606 46.8529 59.6606 46.8529C59.6345 46.8833 59.6084 46.9094 59.578 46.9399V46.9442C57.0953 49.7835 56.2822 50.5226 54.0517 53.0271C52.7603 54.4837 51.8603 55.4533 51.2298 55.8185C50.3906 56.3055 48.9862 55.2707 49.508 54.2228C50.5646 52.114 60.3824 42.1483 64.7087 36.4959C64.7087 36.4916 64.8478 36.322 64.9087 36.235H64.913C65.5826 35.2567 65.7 33.948 65.1043 32.8349C64.2565 31.2392 62.2738 30.6348 60.6737 31.4826C60.2911 31.687 59.9737 31.9522 59.7171 32.2609L59.6606 32.3218C55.3387 37.6177 50.4037 43.0962 45.1469 48.4356V48.4399C45.0339 48.5617 44.9165 48.6704 44.773 48.753C44.1773 49.0661 43.4425 48.84 43.1251 48.2486C42.8555 47.7356 43.012 47.166 43.399 46.7572C50.4254 39.3743 55.8735 32.8088 60.2259 26.9737L60.4781 26.6389C61.2607 25.6432 61.3781 24.291 60.7433 23.104C59.8954 21.5039 57.904 20.8996 56.3039 21.7518C55.8865 21.9735 55.5387 22.2779 55.2604 22.6257C50.5037 28.7086 44.8121 35.1785 38.7814 41.37C38.6162 41.5309 38.451 41.6918 38.2683 41.8048C38.264 41.8048 38.2596 41.8135 38.2596 41.8135C37.664 42.1266 36.9291 41.9005 36.6161 41.3135C36.5204 41.1353 36.2595 40.6048 36.59 40.1222C36.5987 40.1178 36.603 40.1004 36.6117 40.1004C42.7164 33.648 46.0165 29.9217 50.708 23.6692L50.8515 23.4649C51.6689 22.3692 51.9342 21.0213 51.2472 19.7343C50.3037 17.9603 47.847 17.2863 46.0817 18.2342C45.5817 18.4951 44.8382 19.2647 44.8382 19.2647C28.8679 37.422 27.8157 38.4786 27.7896 38.509C26.1113 40.3917 20.9588 40.6004 20.4327 36.8307C20.2892 34.0088 20.7632 33.2175 22.0676 28.9173C23.5546 23.9997 15.8151 21.5952 13.5498 28.3477C13.5498 28.3477 11.2149 34.2436 11.3454 39.3178C11.4323 42.6353 11.9584 45.9746 13.2237 48.9965C13.2281 49.0008 13.2281 49.0139 13.2324 49.0226C13.2411 49.0313 13.2498 49.0487 13.2498 49.0617" fill="#DEDEDE"/>
</svg>
